<svg xmlns="http://www.w3.org/2000/svg" viewBox="0 0 512 512" width="512" height="512">
<rect width="512" height="512" fill="none"/>
<g fill="#000000" fill-rule="evenodd">
  <path d="M 256.00,440.32 L 102.40,204.80 A 153.60,153.60 0 1 1 409.60,204.80 L 256.00,440.32 Z M 256.00,395.81 L 130.05,204.80 A 125.95,125.95 0 1 1 381.95,204.80 L 256.00,395.81 Z"/>
  <g>
    <path d="M 217.29,134.45 L 257.23,174.39 L 217.29,214.32 L 177.36,174.39 Z"/><path d="M 294.71,134.45 L 334.64,174.39 L 294.71,214.32 L 254.77,174.39 Z"/><path d="M 217.29,195.28 L 257.23,235.21 L 217.29,275.15 L 177.36,235.21 Z"/><path d="M 294.71,195.28 L 334.64,235.21 L 294.71,275.15 L 254.77,235.21 Z"/>
  </g>
</g>
</svg>